<svg xmlns="http://www.w3.org/2000/svg" version="1.1" xmlns:xlink="http://www.w3.org/1999/xlink" xmlns:svgjs="http://svgjs.com/svgjs" width="1440" height="560" preserveAspectRatio="none" viewBox="0 0 1440 560"><g mask="url(&quot;#SvgjsMask1009&quot;)" fill="none"><rect width="1440" height="560" x="0" y="0" fill="rgba(180, 209, 194, 1)"></rect><path d="M0,438.802C81.737,435.959,153.359,389.814,220.563,343.203C285.799,297.957,349.158,246.73,381.484,174.218C413.662,102.039,406.966,21.251,399.151,-57.389C391.018,-139.23,391.349,-230.351,335.3,-290.539C279.617,-350.334,188.321,-352.064,108.498,-369.51C34.217,-385.745,-43.065,-415.748,-114.154,-388.773C-183.88,-362.316,-214.986,-284.964,-263.526,-228.346C-311.759,-172.085,-384.219,-130.02,-398.351,-57.274C-412.627,16.217,-365.839,84.856,-337.858,154.295C-308.485,227.187,-290.763,308.278,-230.65,358.899C-167.125,412.393,-82.998,441.689,0,438.802" fill="#84b39b"></path><path d="M1440 1074.7150000000001C1536.921 1074.433 1643.098 1048.368 1707.0529999999999 975.543 1768.545 905.523 1744.755 798.798 1762.63 707.34 1775.816 639.876 1792.109 576.935 1798.34 508.478 1806.502 418.802 1844.416 324.759 1804.811 243.889 1762.759 158.02300000000002 1675.375 97.74900000000002 1583.774 70.35199999999998 1491.974 42.89599999999996 1394.476 64.93099999999998 1303.123 93.84100000000001 1213.261 122.279 1114.103 154.49200000000002 1064.548 234.66899999999998 1016.319 312.699 1059.071 412.63 1049.686 503.881 1040.809 590.193 989.23 671.939 1010.934 755.948 1034.215 846.059 1097.238 921.595 1171.9470000000001 977.0989999999999 1249.856 1034.98 1342.943 1074.9969999999998 1440 1074.7150000000001" fill="#e4efe9"></path></g><defs><mask id="SvgjsMask1009"><rect width="1440" height="560" fill="#ffffff"></rect></mask></defs></svg>