<svg xmlns="http://www.w3.org/2000/svg" version="1.1" xmlns:xlink="http://www.w3.org/1999/xlink" xmlns:svgjs="http://svgjs.com/svgjs" width="1440" height="560" preserveAspectRatio="none" viewBox="0 0 1440 560"><g mask="url(&quot;#SvgjsMask1006&quot;)" fill="none"><rect width="1440" height="560" x="0" y="0" fill="rgba(180, 209, 194, 1)"></rect><path d="M0,378.153C82.088,398.579,171.841,422.443,248.489,386.656C327.551,349.742,389.287,271.881,409.437,186.984C428.64,106.077,366.598,31.263,352.281,-50.65C338.561,-129.147,372.938,-218.268,327.201,-283.522C280.758,-349.784,193.922,-374.488,114.489,-389.914C39.8,-404.419,-34.207,-386.3,-108.07,-368.052C-185.15,-349.01,-272.599,-341.265,-324.755,-281.401C-376.94,-221.503,-382.736,-134.203,-381.006,-54.78C-379.454,16.437,-352.153,83.005,-315.485,144.077C-281.866,200.071,-232.424,241.128,-179.973,280.044C-123.967,321.598,-67.674,361.314,0,378.153" fill="#84b39b"></path><path d="M1440 1239.328C1565.675 1232.8 1639.478 1095.9389999999999 1725.243 1003.846 1792.1680000000001 931.983 1847.972 854.111 1883.87 762.708 1918.214 675.262 1939.034 583.154 1927.067 489.97 1914.982 395.872 1856.315 320.075 1815.9940000000001 234.199 1758.636 112.03800000000001 1766.696-74.68600000000004 1640.052-121.31600000000003 1516.24-166.90300000000002 1402.869-23.918000000000006 1287.163 39.48400000000004 1196.579 89.12 1118.1680000000001 147.42200000000003 1035.82 209.776 929.7090000000001 290.124 775.521 332.067 733.829 458.468 692.003 585.273 751.818 729.864 828.134 839.4300000000001 898.851 940.9580000000001 1031.4850000000001 966.813 1135.055 1034.504 1239.673 1102.88 1315.187 1245.812 1440 1239.328" fill="#e4efe9"></path></g><defs><mask id="SvgjsMask1006"><rect width="1440" height="560" fill="#ffffff"></rect></mask></defs></svg>