<svg xmlns="http://www.w3.org/2000/svg" xmlns:xlink="http://www.w3.org/1999/xlink" version="1.1" x="0px" y="0px" viewBox="0 0 64 80" fill="#855C58" style="enable-background:new 0 0 64 64;" xml:space="preserve"><g><rect x="39" y="31" width="2" height="2"/><rect x="43" y="31" width="2" height="2"/><rect x="35" y="31" width="2" height="2"/><path d="M7,1H1v6h6V1z M5,5H3V3h2V5z"/><rect x="9" y="3" width="10" height="2"/><path d="M7,9H1v6h6V9z M5,13H3v-2h2V13z"/><rect x="9" y="11" width="10" height="2"/><path d="M7,17H1v6h6V17z M5,21H3v-2h2V21z"/><path d="M7,25H1v6h6V25z M5,29H3v-2h2V29z"/><path d="M58.846,39.247c-0.271-0.651-0.284-1.367-0.045-2.022C61.442,33.481,63,28.92,63,24c0-5.982-2.297-11.437-6.054-15.532   l5.761-5.761l-1.414-1.414l-5.761,5.761C51.437,3.297,45.982,1,40,1C29.035,1,19.844,8.715,17.554,19H9v2h8.202   C17.073,21.983,17,22.983,17,24s0.073,2.017,0.202,3H9v2h8.554c0.406,1.822,1.026,3.563,1.837,5.195L4.097,49.489L0.626,63.375   l13.886-3.472L27,47.414V49h1.584c1.121,0,2.122,0.669,2.57,1.753c0.436,1.044,0.204,2.232-0.589,3.025l-1.123,1.12l5.658,5.658   l1.12-1.12c0.794-0.793,1.979-1.027,3.074-0.57C40.331,59.294,41,60.294,41,61.416V63h8v-1.584c0-1.121,0.669-2.122,1.753-2.57   c1.045-0.436,2.231-0.204,3.026,0.59l1.12,1.12l5.658-5.658l-1.122-1.119c-0.794-0.794-1.025-1.981-0.57-3.074   C59.294,49.669,60.295,49,61.416,49H63v-8h-1.584C60.295,41,59.294,40.331,58.846,39.247z M40,3c5.43,0,10.37,2.089,14.102,5.484   l-2.827,2.827C48.27,8.639,44.328,7,40,7c-9.374,0-17,7.626-17,17s7.626,17,17,17s17-7.626,17-17c0-4.328-1.639-8.27-4.311-11.275   l2.827-2.827C58.91,13.63,61,18.57,61,24c0,11.58-9.421,21-21,21s-21-9.42-21-21S28.421,3,40,3z M37,28.414l14.275-14.275   C53.587,16.779,55,20.224,55,24c0,8.271-6.729,15-15,15s-15-6.729-15-15S31.729,9,40,9c3.776,0,7.221,1.413,9.861,3.725L37,25.586   l-4.293-4.293l-1.414,1.414L37,28.414z M53,45c0,4.411-3.589,8-8,8c-3.75,0-6.948-2.628-7.782-6.174   c0.703,0.085,1.414,0.138,2.135,0.158C40.185,49.349,42.435,51,45,51c3.309,0,6-2.691,6-6c0-0.26-0.018-0.52-0.051-0.777   c0.625-0.34,1.232-0.709,1.82-1.104C52.916,43.732,53,44.359,53,45z M48.983,45.172C48.89,47.297,47.147,49,45,49   c-1.474,0-2.792-0.82-3.485-2.055C44.148,46.772,46.663,46.16,48.983,45.172z M12.044,58.458l-4.938,1.234l-2.799-2.799   l1.235-4.937L12.044,58.458z M10.914,54.5l13.554-13.554c1.082,0.993,2.259,1.883,3.516,2.656L14,57.586L10.914,54.5z    M23.054,39.532L9.5,53.086L6.414,50l13.984-13.984C21.171,37.273,22.061,38.45,23.054,39.532z M3.742,59.156l1.102,1.102   l-1.47,0.367L3.742,59.156z M61,47.018c-1.762,0.152-3.298,1.269-4,2.966c-0.695,1.666-0.4,3.546,0.74,4.903l-2.854,2.854   c-1.358-1.141-3.241-1.435-4.945-0.723c-1.658,0.685-2.771,2.22-2.924,3.982h-4.035c-0.152-1.763-1.27-3.299-2.966-4   c-1.665-0.695-3.546-0.401-4.903,0.741l-2.854-2.854c1.14-1.357,1.434-3.241,0.723-4.947c-0.686-1.657-2.221-2.77-3.982-2.922   v-1.604l0.805-0.805c1.667,0.828,3.447,1.459,5.311,1.864C35.834,51.311,40.032,55,45,55c5.514,0,10-4.486,10-10   c0-1.082-0.179-2.137-0.516-3.15c0.85-0.691,1.649-1.441,2.392-2.244c0.047,0.151,0.08,0.304,0.142,0.454   c0.686,1.657,2.221,2.77,3.982,2.922V47.018z"/><circle cx="45" cy="58" r="1"/><path d="M54,53c-0.256,0-0.512,0.098-0.707,0.293c-0.391,0.391-0.391,1.024,0,1.414C53.488,54.902,53.744,55,54,55   s0.512-0.098,0.707-0.293c0.391-0.391,0.391-1.024,0-1.414C54.512,53.098,54.256,53,54,53z"/><circle cx="58" cy="45" r="1"/><path d="M36,53c-0.256,0-0.512,0.098-0.707,0.293c-0.391,0.391-0.391,1.024,0,1.414C35.488,54.902,35.744,55,36,55   s0.512-0.098,0.707-0.293c0.391-0.391,0.391-1.024,0-1.414C36.512,53.098,36.256,53,36,53z"/></g></svg>