<svg xmlns="http://www.w3.org/2000/svg" xmlns:xlink="http://www.w3.org/1999/xlink" version="1.1" x="0px" y="0px" viewBox="0 0 520 650" style="enable-background:new 0 0 520 520;" xml:space="preserve"><g><g><path d="M260,135.001c13.785,0,25-11.215,25-25c0-13.785-11.215-25-25-25c-13.785,0-25,11.215-25,25    C235,123.787,246.215,135.001,260,135.001z M260,95.002c8.271,0,15,6.729,15,15s-6.729,15-15,15c-8.271,0-15-6.729-15-15    S251.729,95.002,260,95.002z"/><path d="M460.561,425.017C469.391,417.43,475,406.195,475,393.669V166.335c0-22.792-18.542-41.334-41.333-41.334H327.849    c-8.442-38.271-31.474-72.126-65.106-94.181c-1.666-1.092-3.818-1.092-5.484,0c-33.633,22.056-56.664,55.911-65.106,94.181H86.334    C63.542,125.002,45,143.544,45,166.335v227.334c0,12.526,5.609,23.761,14.438,31.348C40.399,425.318,25,440.892,25,460.002    c0,19.299,15.701,35,35,35h400c19.299,0,35-15.701,35-35C495,440.892,479.602,425.318,460.561,425.017z M380,435.002h45v10h-45    V435.002z M375,215.001c2.762,0,5-2.239,5-5v-40h10v55c0,2.761,2.238,5,5,5c2.762,0,5-2.239,5-5v-55h10v70c0,2.761,2.238,5,5,5    c2.762,0,5-2.239,5-5v-70h10v115.213c-19.842,1.631-37.469,12.896-47.293,30.376c-5.862,0.958-11.459,3.07-16.497,6.219    c-16.103-18.236-45.315-14.736-56.921,6.422c-12.484-9.541-29.445-10.915-43.244-3.454c-16.969-20.958-49.749-19.427-64.548,3.359    c-15.408-6.063-33.674-3.385-46.715,8.499c-11.179-23.708-38.32-37.058-64.782-29.54V170.001h10v70c0,2.761,2.239,5,5,5    s5-2.239,5-5v-70h10v55c0,2.761,2.239,5,5,5s5-2.239,5-5v-55h10v40c0,2.761,2.239,5,5,5s5-2.239,5-5v-40h39.07    c0.551,6.952,1.575,13.824,3.059,20.578c-13.404,18.913-15.311,41.705-6.813,61.402c1.734,4.019,7.449,4.017,9.182,0    c3.067-7.109,7.767-13.721,13.739-19.383c1.942,3.425,4.016,6.789,6.234,10.076c0.789,1.169,2.035,1.95,3.431,2.151    c1.44,0.207,2.845-0.224,3.899-1.095c1.886-1.559,3.864-2.987,5.913-4.294c1.659,20.137,12.434,38.403,29.543,49.622    c1.654,1.084,3.805,1.101,5.484,0c17.109-11.22,27.885-29.485,29.544-49.621c2.049,1.307,4.027,2.735,5.913,4.294    c2.287,1.889,5.686,1.38,7.33-1.057c2.219-3.287,4.292-6.651,6.234-10.076c5.972,5.663,10.672,12.274,13.738,19.383    c1.732,4.019,7.447,4.017,9.182,0.001c8.496-19.692,6.596-42.486-6.811-61.403c1.483-6.754,2.507-13.626,3.058-20.578H370v40    C370,212.763,372.238,215.001,375,215.001z M90,317.585c24.477-8.683,51.068,5.33,58.198,29.815    c1.15,3.947,6.327,4.896,8.799,1.605c10.77-14.342,29.684-17.661,44.255-10c1.195,0.628,2.593,0.745,3.875,0.328    c1.283-0.418,2.343-1.337,2.938-2.548c5.091-10.354,15.412-16.784,26.935-16.784c10.415,0,19.934,5.286,25.463,14.142    c1.532,2.454,4.811,3.089,7.145,1.423c5.104-3.641,11.118-5.564,17.393-5.564c8.553,0,16.726,3.673,22.421,10.077    c1.212,1.363,3.07,1.959,4.85,1.552c1.778-0.406,3.194-1.748,3.695-3.502c3.045-10.673,12.928-18.127,24.034-18.127    c8.487,0,16.324,4.258,20.966,11.39c1.605,2.47,4.991,3.019,7.3,1.189c5.248-4.167,11.523-6.726,18.148-7.397    c1.695-0.173,3.186-1.196,3.956-2.717c7.811-15.438,22.706-25.541,39.63-27.215v94.75H90V317.585z M203.448,223.446    c-4.742,4.171-8.882,8.848-12.282,13.898c-2.169-10.955-0.794-22.58,4.565-33.375C197.851,210.622,200.416,217.13,203.448,223.446    z M282.506,234.392c-0.129,17.605-8.456,33.941-22.506,44.389c-14.049-10.446-22.376-26.783-22.505-44.389    C251.956,228.544,268.02,228.534,282.506,234.392z M324.269,203.97c5.335,10.744,6.745,22.371,4.564,33.374    c-3.399-5.05-7.539-9.727-12.281-13.898C319.584,217.131,322.149,210.622,324.269,203.97z M260,41.026    c62.796,43.265,79.784,127.856,40.12,191.612c-24.135-16.87-56.202-16.806-80.24,0C180.646,169.576,196.529,84.756,260,41.026z     M55,393.669V166.335c0-17.277,14.056-31.334,31.334-31.334h103.971c-1.331,8.806-1.805,16.792-1.687,25H85c-2.761,0-5,2.239-5,5    c0,12.719,0,217.532,0,230.001c0,2.761,2.239,5,5,5h350c2.762,0,5-2.239,5-5V165.001c0-2.761-2.238-5-5-5H331.383    c0.112-8.187-0.344-16.119-1.688-25h103.972c17.277,0,31.333,14.056,31.333,31.334v227.334c0,17.276-14.056,31.333-31.333,31.333    c-45.393,0-293.337,0-347.333,0C69.056,425.002,55,410.945,55,393.669z M215,435.002h90v10h-90V435.002z M95,435.002h45v10H95    V435.002z M460,485.002H60c-13.785,0-25-11.215-25-25c0-13.785,11.215-25,25-25h25v15c0,2.761,2.239,5,5,5h55c2.761,0,5-2.239,5-5    v-15h55v15c0,2.761,2.239,5,5,5h100c2.762,0,5-2.239,5-5v-15h55v15c0,2.761,2.238,5,5,5h55c2.762,0,5-2.239,5-5v-15h25    c13.785,0,25,11.215,25,25C485,473.787,473.785,485.002,460,485.002z"/><path d="M224.306,181.973c-1.672,2.197-1.247,5.335,0.95,7.007c2.198,1.673,5.334,1.247,7.007-0.95    c13.036-17.128,42.452-17.107,55.474,0c0.983,1.292,2.475,1.972,3.982,1.972c4.085,0,6.495-4.718,3.975-8.029    C278.692,159.636,241.354,159.576,224.306,181.973z"/><path d="M217.536,168.98c2.197,1.673,5.336,1.247,7.007-0.95c16.698-21.939,54.238-21.907,70.914,0    c0.983,1.292,2.475,1.972,3.982,1.972c4.085,0,6.495-4.718,3.975-8.029c-20.653-27.134-66.115-27.214-86.828,0    C214.913,164.17,215.339,167.308,217.536,168.98z"/><path d="M120,350.002c-8.271,0-15,6.728-15,15c0,8.27,6.729,15,15,15s15-6.73,15-15C135,356.73,128.271,350.002,120,350.002z     M120,370.002c-2.757,0-5-2.243-5-5c0-2.757,2.243-5,5-5c2.757,0,5,2.243,5,5C125,367.759,122.757,370.002,120,370.002z"/><path d="M285,355.002c-2.762,0-5,2.238-5,5c0,5.514-4.486,10-10,10s-10-4.486-10-10c0-2.762-2.238-5-5-5c-2.761,0-5,2.238-5,5    c0,11.027,8.972,20,20,20c11.028,0,20-8.973,20-20C290,357.24,287.762,355.002,285,355.002z"/><path d="M360.555,350.859c-1.953,1.953-1.953,5.119,0,7.071c1.951,1.952,5.119,1.952,7.07,0c3.9-3.898,10.243-3.899,14.144,0    c3.898,3.899,3.898,10.243,0,14.142c-1.953,1.953-1.953,5.119,0,7.071c1.951,1.953,5.119,1.953,7.07,0    c7.817-7.817,7.816-20.468,0-28.284C381.043,343.063,368.352,343.06,360.555,350.859z"/><path d="M192.071,360.86c-5.04,5.04-5.04,13.242,0,18.283c1.952,1.953,5.119,1.953,7.071,0c1.953-1.952,1.953-5.118,0-7.07    c-1.142-1.143-1.142-3.001,0-4.143c1.106-1.107,3.036-1.107,4.142,0c1.952,1.953,5.119,1.953,7.071,0    c1.953-1.952,1.953-5.118,0.001-7.07C205.304,355.808,197.125,355.807,192.071,360.86z"/><path d="M85,95.002c11.028,0,20-8.972,20-20c0-11.028-8.972-20-20-20s-20,8.972-20,20C65,86.029,73.972,95.002,85,95.002z     M85,65.002c5.514,0,10,4.486,10,10c0,5.514-4.486,10-10,10s-10-4.486-10-10C75,69.487,79.486,65.002,85,65.002z"/><path d="M420,105.002c16.542,0,30-13.458,30-30s-13.458-30-30-30s-30,13.458-30,30S403.458,105.002,420,105.002z M420,55.001    c11.028,0,20,8.972,20,20c0,11.028-8.972,20-20,20c-11.028,0-20-8.972-20-20C400,63.974,408.972,55.001,420,55.001z"/><circle cx="357.5" cy="52.5" r="7.5"/><circle cx="477.5" cy="107.5" r="7.5"/><circle cx="407.5" cy="332.5" r="7.5"/><circle cx="332.5" cy="357.5" r="7.5"/><circle cx="232.5" cy="342.5" r="7.5"/><circle cx="157.5" cy="372.5" r="7.5"/><circle cx="197.5" cy="37.5" r="7.5"/><circle cx="147.5" cy="92.5" r="7.5"/><circle cx="47.5" cy="102.5" r="7.5"/></g></g><text x="0" y="535" fill="#000000" font-size="5px" font-weight="bold" font-family="'Helvetica Neue', Helvetica, Arial-Unicode, Arial, Sans-serif">Created by Flatart</text><text x="0" y="540" fill="#000000" font-size="5px" font-weight="bold" font-family="'Helvetica Neue', Helvetica, Arial-Unicode, Arial, Sans-serif">from the Noun Project</text></svg>