<svg xmlns="http://www.w3.org/2000/svg" xmlns:xlink="http://www.w3.org/1999/xlink" version="1.1" x="0px" y="0px" viewBox="0 0 520 650" style="enable-background:new 0 0 520 520;" xml:space="preserve"><g><g><path d="M102.91,345.514l-15.053,37.631c-1.606,4.017,2.326,8.054,6.383,6.544l67.703-25.147    c61.578,11.939,136.058,4.845,189.642-26.718c28.748-16.934,47.185-38.502,53.483-62.035    C509.725,233.451,515.841,141.636,417.09,94.49l15.053-37.631c1.607-4.018-2.324-8.05-6.384-6.544l-67.701,25.146    c-59.983-11.632-129.377-4.82-180.867,21.873c-33.215,17.22-55.199,40.87-62.225,66.83    C10.454,206.51,4.002,298.291,102.91,345.514z M300,80.002c19.689,0,39.035,1.864,57.5,5.541c0.909,0.182,1.85,0.106,2.718-0.217    l58.451-21.71l-12.624,31.561c-0.995,2.487,0.147,5.317,2.591,6.417c93.525,42.091,90.541,121.992-1.454,162.46    c3.548-37.756-23.026-67.688-55.597-86.874c-62.869-37.032-155.794-41.021-224.608-17.494    C145.238,113.651,216.923,80.002,300,80.002z M93.491,185.795c69.62-41.008,183.121-41.172,253.019,0    c67.998,40.054,68.036,103.336,0,143.413C294.77,359.684,222.089,366.327,162.5,354.46c-0.909-0.181-1.849-0.107-2.717,0.217    l-58.453,21.711l12.624-31.561c0.995-2.487-0.147-5.316-2.591-6.416C27.538,300.685,18.637,229.888,93.491,185.795z"/><path d="M137.5,280.002c13.785,0,25-11.215,25-25.001c0-13.785-11.215-25-25-25s-25,11.215-25,25    C112.5,268.787,123.715,280.002,137.5,280.002z M137.5,240.001c8.271,0,15,6.729,15,15s-6.729,15.001-15,15.001    s-15-6.73-15-15.001S129.229,240.001,137.5,240.001z"/><path d="M217.5,280.002c13.785,0,25-11.215,25-25.001c0-13.785-11.215-25-25-25c-13.785,0-25,11.215-25,25    C192.5,268.787,203.715,280.002,217.5,280.002z M217.5,240.001c8.271,0,15,6.729,15,15s-6.729,15.001-15,15.001    s-15-6.73-15-15.001S209.229,240.001,217.5,240.001z"/><path d="M297.5,280.002c13.785,0,25-11.215,25-25.001c0-13.785-11.215-25-25-25c-13.785,0-25,11.215-25,25    C272.5,268.787,283.715,280.002,297.5,280.002z M297.5,240.001c8.271,0,15,6.729,15,15s-6.729,15.001-15,15.001    c-8.272,0-15-6.73-15-15.001S289.228,240.001,297.5,240.001z"/><path d="M317.5,440.002c0-2.762-2.238-5-5-5h-270c-2.761,0-5,2.238-5,5c0,2.761,2.239,5,5,5h270    C315.262,445.002,317.5,442.763,317.5,440.002z"/><path d="M412.5,455.002h-145c-2.762,0-5,2.238-5,5c0,2.761,2.238,5,5,5h145c2.762,0,5-2.239,5-5    C417.5,457.24,415.262,455.002,412.5,455.002z"/><path d="M332.5,475.002h-190c-2.761,0-5,2.238-5,5c0,2.761,2.239,5,5,5h190c2.762,0,5-2.239,5-5    C337.5,477.24,335.262,475.002,332.5,475.002z"/><circle cx="427.5" cy="460" r="5"/><circle cx="127.5" cy="480" r="5"/><path d="M477.5,455.002h-35c-2.762,0-5,2.238-5,5c0,2.761,2.238,5,5,5h35c2.762,0,5-2.239,5-5    C482.5,457.24,480.262,455.002,477.5,455.002z"/><path d="M462.5,385.002c0-16.542-13.458-30-30-30s-30,13.458-30,30c0,16.542,13.458,30,30,30S462.5,401.544,462.5,385.002z     M432.5,405.002c-11.028,0-20-8.973-20-20c0-11.028,8.972-20,20-20c11.028,0,20,8.972,20,20    C452.5,396.029,443.528,405.002,432.5,405.002z"/><path d="M87.5,120.002c22.056,0,40-17.944,40-40c0-22.056-17.944-40-40-40s-40,17.944-40,40    C47.5,102.058,65.444,120.002,87.5,120.002z M87.5,50.001c16.542,0,30,13.458,30,30s-13.458,30-30,30s-30-13.458-30-30    S70.958,50.001,87.5,50.001z"/><circle cx="470" cy="307.5" r="7.5"/><circle cx="380" cy="407.5" r="7.5"/><circle cx="185" cy="397.5" r="7.5"/><circle cx="225" cy="42.5" r="7.5"/><circle cx="465" cy="77.5" r="7.5"/><circle cx="65" cy="152.5" r="7.5"/></g></g><text x="0" y="535" fill="#000000" font-size="5px" font-weight="bold" font-family="'Helvetica Neue', Helvetica, Arial-Unicode, Arial, Sans-serif">Created by Flatart</text><text x="0" y="540" fill="#000000" font-size="5px" font-weight="bold" font-family="'Helvetica Neue', Helvetica, Arial-Unicode, Arial, Sans-serif">from the Noun Project</text></svg>