<svg xmlns="http://www.w3.org/2000/svg" xmlns:xlink="http://www.w3.org/1999/xlink" version="1.1" x="0px" y="0px" viewBox="0 0 520 650" style="enable-background:new 0 0 520 520;" xml:space="preserve"><g><g><path d="M425.06,308.464c0,0,0-0.001,0.001-0.001l14.142-14.142l0,0l0,0l10.607-10.606c11.697-11.696,11.697-30.729,0-42.427    c-11.723-11.723-30.701-11.725-42.426,0L380,268.672v-163.92c0-17.783-14.467-32.25-32.25-32.25H335v-25c0-2.761-2.238-5-5-5    c-2.762,0-5,2.239-5,5v25h-40v-25c0-2.761-2.238-5-5-5c-2.762,0-5,2.239-5,5v25h-40v-25c0-2.761-2.239-5-5-5s-5,2.239-5,5v25h-40    v-25c0-2.761-2.239-5-5-5s-5,2.239-5,5v25h-40v-25c0-2.761-2.239-5-5-5s-5,2.239-5,5v25h-12.75    c-17.783,0-32.25,14.467-32.25,32.25v305.501c0,17.782,14.467,32.25,32.25,32.25h107.447l-4.629,27.774    c-0.564,3.388,2.381,6.318,5.754,5.754l42.426-7.071c1.027-0.171,1.977-0.659,2.713-1.397l25.061-25.06h56.729    c17.783,0,32.25-14.468,32.25-32.25v-56.728C385.652,347.872,419.456,314.068,425.06,308.464z M284.298,435.084l-10.606-10.607    l130.156-130.156l10.606,10.606L284.298,435.084z M261.777,401.036l86.756-86.756c0.002-0.001,0.003-0.003,0.005-0.004    c13.139-13.139,23.763-23.762,37.632-37.633l10.607,10.606L266.621,417.406L256.014,406.8    C256.114,406.699,261.877,400.936,261.777,401.036z M400.313,262.501l28.284,28.284l-7.071,7.072l-28.285-28.285L400.313,262.501z     M414.454,248.359c7.814-7.815,20.467-7.817,28.284-0.001c7.798,7.799,7.798,20.488,0.001,28.285l-7.071,7.071l-28.285-28.285    L414.454,248.359z M112.25,432.502c-12.269,0-22.25-9.982-22.25-22.25V104.752c0-12.269,9.981-22.25,22.25-22.25H125v5.658    c-8.612,2.229-15,10.043-15,19.342v10c0,11.028,8.972,20,20,20s20-8.972,20-20v-10c0-9.299-6.388-17.113-15-19.342v-5.658h40    v5.658c-8.612,2.229-15,10.043-15,19.342v10c0,11.028,8.972,20,20,20s20-8.972,20-20v-10c0-9.299-6.388-17.113-15-19.342v-5.658    h40v5.658c-8.612,2.229-15,10.043-15,19.342v10c0,11.028,8.972,20,20,20s20-8.972,20-20v-10c0-9.299-6.388-17.113-15-19.342    v-5.658h40v5.658c-8.612,2.229-15,10.043-15,19.342v10c0,11.028,8.972,20,20,20c11.028,0,20-8.972,20-20v-10    c0-9.299-6.388-17.113-15-19.342v-5.658h40v5.658c-8.612,2.229-15,10.043-15,19.342v10c0,11.028,8.972,20,20,20    c11.028,0,20-8.972,20-20v-10c0-9.299-6.388-17.113-15-19.342v-5.658h12.75c12.269,0,22.25,9.981,22.25,22.25v173.92l-20,20    v-116.17c0-2.761-2.238-5-5-5c-2.762,0-5,2.239-5,5v126.17l-83.831,83.83H120V182.501c0-2.761-2.239-5-5-5s-5,2.239-5,5v215.001    c0,2.761,2.239,5,5,5h131.169c-25.728,25.728-19.827,19.827-22.634,22.634c-0.737,0.737-1.225,1.686-1.396,2.714l-0.775,4.652    H112.25z M130,97.502c5.514,0,10,4.486,10,10v10c0,5.514-4.486,10-10,10c-5.514,0-10-4.486-10-10v-10    C120,101.987,124.486,97.502,130,97.502z M180,97.502c5.514,0,10,4.486,10,10v10c0,5.514-4.486,10-10,10c-5.514,0-10-4.486-10-10    v-10C170,101.987,174.486,97.502,180,97.502z M230,97.502c5.514,0,10,4.486,10,10v10c0,5.514-4.486,10-10,10    c-5.514,0-10-4.486-10-10v-10C220,101.987,224.486,97.502,230,97.502z M280,97.502c5.514,0,10,4.486,10,10v10    c0,5.514-4.486,10-10,10s-10-4.486-10-10v-10C270,101.987,274.486,97.502,280,97.502z M330,97.502c5.514,0,10,4.486,10,10v10    c0,5.514-4.486,10-10,10s-10-4.486-10-10v-10C320,101.987,324.486,97.502,330,97.502z M260.023,459.358l-33.94,5.657l5.657-33.941    l17.204-17.203l28.284,28.284L260.023,459.358z M370,410.252c0,12.268-9.981,22.25-22.25,22.25h-46.729l30-30H345    c2.762,0,5-2.239,5-5v-13.979l20-19.999V410.252z"/><path d="M455,92.502c-16.542,0-30,13.458-30,30s13.458,30,30,30s30-13.458,30-30S471.542,92.502,455,92.502z M455,142.501    c-11.028,0-20-8.972-20-20c0-11.028,8.972-20,20-20c11.028,0,20,8.972,20,20C475,133.529,466.028,142.501,455,142.501z"/><path d="M67.5,442.502c-12.407,0-22.5,10.093-22.5,22.5c0,12.406,10.093,22.5,22.5,22.5s22.5-10.094,22.5-22.5    C90,452.595,79.907,442.502,67.5,442.502z M67.5,477.502c-6.893,0-12.5-5.608-12.5-12.5c0-6.893,5.607-12.5,12.5-12.5    s12.5,5.607,12.5,12.5C80,471.895,74.393,477.502,67.5,477.502z"/><circle cx="452.5" cy="335" r="7.5"/><circle cx="432.5" cy="430" r="7.5"/><circle cx="302.5" cy="460" r="7.5"/><circle cx="417.5" cy="200" r="7.5"/><circle cx="417.5" cy="45" r="7.5"/><circle cx="67.5" cy="65" r="7.5"/><circle cx="47.5" cy="290" r="7.5"/><circle cx="142.5" cy="465" r="7.5"/><path d="M150,202.501h160c2.762,0,5-2.239,5-5c0-2.761-2.238-5-5-5H150c-2.761,0-5,2.239-5,5    C145,200.263,147.239,202.501,150,202.501z"/><path d="M150,222.501h160c2.762,0,5-2.239,5-5c0-2.761-2.238-5-5-5H150c-2.761,0-5,2.239-5,5    C145,220.263,147.239,222.501,150,222.501z"/><path d="M150,242.501h160c2.762,0,5-2.239,5-5c0-2.761-2.238-5-5-5H150c-2.761,0-5,2.239-5,5    C145,240.263,147.239,242.501,150,242.501z"/><path d="M150,262.502h160c2.762,0,5-2.239,5-5c0-2.762-2.238-5.001-5-5.001H150c-2.761,0-5,2.239-5,5.001    C145,260.263,147.239,262.502,150,262.502z"/><path d="M150,282.502h160c2.762,0,5-2.239,5-5c0-2.762-2.238-5-5-5H150c-2.761,0-5,2.238-5,5    C145,280.263,147.239,282.502,150,282.502z"/><path d="M150,302.502h85c2.761,0,5-2.239,5-5c0-2.762-2.239-5-5-5h-85c-2.761,0-5,2.238-5,5    C145,300.263,147.239,302.502,150,302.502z"/><path d="M150,322.502h50c2.761,0,5-2.239,5-5c0-2.762-2.239-5-5-5h-50c-2.761,0-5,2.238-5,5    C145,320.263,147.239,322.502,150,322.502z"/></g></g><text x="0" y="535" fill="#000000" font-size="5px" font-weight="bold" font-family="'Helvetica Neue', Helvetica, Arial-Unicode, Arial, Sans-serif">Created by Flatart</text><text x="0" y="540" fill="#000000" font-size="5px" font-weight="bold" font-family="'Helvetica Neue', Helvetica, Arial-Unicode, Arial, Sans-serif">from the Noun Project</text></svg>