<svg xmlns="http://www.w3.org/2000/svg" xmlns:xlink="http://www.w3.org/1999/xlink" version="1.1" x="0px" y="0px" viewBox="0 0 520 650" style="enable-background:new 0 0 520 520;" xml:space="preserve"><g><g><path d="M336.842,257.502c0-42.372-34.471-76.843-76.842-76.843s-76.842,34.471-76.842,76.843    c0,42.37,34.471,76.842,76.842,76.842S336.842,299.872,336.842,257.502z M193.158,257.502c0-36.858,29.985-66.843,66.842-66.843    c36.856,0,66.842,29.985,66.842,66.843c0,36.856-29.985,66.842-66.842,66.842C223.143,324.344,193.158,294.358,193.158,257.502z"/><path d="M301.842,257.502c0-23.072-18.771-41.843-41.842-41.843c-23.072,0-41.842,18.771-41.842,41.843    c0,23.071,18.77,41.842,41.842,41.842C283.071,299.344,301.842,280.573,301.842,257.502z M228.158,257.502    c0-17.559,14.284-31.843,31.842-31.843c17.558,0,31.842,14.284,31.842,31.843c0,12.407-7.138,23.172-17.518,28.424    c5.244-9.377,0.256-20.937-9.81-23.813c-8.725-2.493-17.817,2.559-20.31,11.283c-1.25,4.374-0.602,8.839,1.454,12.52    C235.287,280.661,228.158,269.901,228.158,257.502z"/><path d="M117.5,374.288c-7.877,0-14.286,6.408-14.286,14.285c0,7.877,6.409,14.286,14.286,14.286s14.286-6.409,14.286-14.286    C131.786,380.696,125.377,374.288,117.5,374.288z M117.5,392.859c-2.363,0-4.286-1.923-4.286-4.286    c0-2.363,1.922-4.285,4.286-4.285c2.363,0,4.286,1.922,4.286,4.285C121.786,390.936,119.863,392.859,117.5,392.859z"/><path d="M150,374.288c-7.877,0-14.286,6.408-14.286,14.285c0,7.877,6.409,14.286,14.286,14.286s14.286-6.409,14.286-14.286    C164.286,380.696,157.877,374.288,150,374.288z M150,392.859c-2.363,0-4.286-1.923-4.286-4.286c0-2.363,1.922-4.285,4.286-4.285    s4.286,1.922,4.286,4.285C154.286,390.936,152.363,392.859,150,392.859z"/><path d="M182.5,374.288c-7.877,0-14.286,6.408-14.286,14.285c0,7.877,6.409,14.286,14.286,14.286s14.286-6.409,14.286-14.286    C196.786,380.696,190.377,374.288,182.5,374.288z M182.5,392.859c-2.363,0-4.286-1.923-4.286-4.286    c0-2.363,1.922-4.285,4.286-4.285c2.363,0,4.286,1.922,4.286,4.285C186.786,390.936,184.863,392.859,182.5,392.859z"/><path d="M491.101,255.126c-14.507-26.872-33.36-50.731-56.095-71.067C458.281,175.802,475,153.572,475,127.502    c0-33.084-26.916-60-60-60c-35.809,0-64.1,31.453-59.5,67.612C234.054,87.58,92.873,136.626,28.899,255.126    c-0.8,1.482-0.8,3.268,0,4.751c17.011,31.51,40.822,59.729,69.057,81.943c-25.686,28.564-23.574,72.451,4.796,98.399    l-8.567,25.701c-1.36,4.079,2.755,7.871,6.713,6.177l34.947-14.978c41.486,8.554,80.253-21.321,83.866-62.361    c109.623,16.866,218.253-36.455,271.389-134.882C491.901,258.395,491.901,256.608,491.101,255.126z M415,77.502    c27.57,0,50,22.43,50,50s-22.43,50-50,50c-27.57,0-50-22.43-50-50S387.43,77.502,415,77.502z M136.47,447.022    c-1.034-0.24-2.117-0.143-3.093,0.276l-26.184,11.222l6.1-18.3c0.652-1.957,0.036-4.114-1.553-5.431    C97.924,423.338,90,406.493,90,388.573c0-33.084,26.916-60,60-60c33.08,0,59.994,26.91,59.999,59.989    c0,0.002-0.001,0.005-0.001,0.007c-0.001,0.032,0.003-0.116-0.007,0.313C209.796,427.272,173.972,455.66,136.47,447.022z     M160,257.502c0-55.141,44.86-100.001,100-100.001c55.141,0,100,44.86,100,100.001c0,55.14-44.859,100-100,100    C204.86,357.502,160,312.642,160,257.502z M219.884,384.65c-0.559-10.071-3.268-19.573-7.657-28.075    c14.455,6.999,30.664,10.927,47.773,10.927c60.654,0,110-49.346,110-110c0-60.655-49.346-110.001-110-110.001    s-110,49.346-110,110.001c0,23.947,7.697,46.128,20.74,64.209c-22.449-6.979-47.111-2.247-65.508,13.099    c-26.928-20.945-49.743-47.549-66.234-77.309C102.435,142.915,241.103,97.44,358.285,147.042    c9.136,26.438,35.797,43.829,64.806,39.898c23.543,19.941,43.017,43.653,57.912,70.562    C429.26,350.963,325.047,401.423,219.884,384.65z"/><path d="M393.535,156.037l50-50c1.953-1.953,1.953-5.119,0-7.071c-1.951-1.952-5.119-1.952-7.07,0l-50,50    c-1.953,1.953-1.953,5.119,0,7.071C388.416,157.99,391.584,157.989,393.535,156.037z"/><path d="M422.5,137.501c-6.893,0-12.5,5.607-12.5,12.5c0,6.893,5.607,12.5,12.5,12.5c6.893,0,12.5-5.607,12.5-12.5    C435,143.109,429.393,137.501,422.5,137.501z M422.5,152.501c-1.379,0-2.5-1.122-2.5-2.5c0-1.378,1.121-2.5,2.5-2.5    c1.379,0,2.5,1.122,2.5,2.5C425,151.38,423.879,152.501,422.5,152.501z"/><circle cx="52.502" cy="165.002" r="7.5"/><circle cx="177.498" cy="80.002" r="7.5"/><circle cx="352.502" cy="45.002" r="7.5"/><circle cx="457.502" cy="360.001" r="7.5"/><circle cx="352.498" cy="420.001" r="7.5"/><circle cx="222.502" cy="474.998" r="7.5"/><circle cx="52.502" cy="364.998" r="7.501"/><path d="M407.5,117.502c6.893,0,12.5-5.608,12.5-12.5c0-6.893-5.607-12.5-12.5-12.5c-6.893,0-12.5,5.607-12.5,12.5    C395,111.894,400.607,117.502,407.5,117.502z M407.5,102.502c1.379,0,2.5,1.121,2.5,2.5c0,1.378-1.121,2.5-2.5,2.5    c-1.379,0-2.5-1.122-2.5-2.5C405,103.623,406.121,102.502,407.5,102.502z"/><path d="M100,132.501c19.299,0,35-15.701,35-35c0-19.299-15.701-35-35-35s-35,15.701-35,35C65,116.8,80.701,132.501,100,132.501z     M100,72.502c13.785,0,25,11.215,25,25c0,13.785-11.215,25-25,25s-25-11.215-25-25C75,83.716,86.215,72.502,100,72.502z"/><path d="M415,387.502c-13.785,0-25,11.215-25,25c0,13.785,11.215,25,25,25c13.785,0,25-11.215,25-25    C440,398.717,428.785,387.502,415,387.502z M415,427.502c-8.272,0-15-6.73-15-15c0-8.272,6.728-15,15-15c8.271,0,15,6.728,15,15    C430,420.772,423.271,427.502,415,427.502z"/></g></g><text x="0" y="535" fill="#000000" font-size="5px" font-weight="bold" font-family="'Helvetica Neue', Helvetica, Arial-Unicode, Arial, Sans-serif">Created by Flatart</text><text x="0" y="540" fill="#000000" font-size="5px" font-weight="bold" font-family="'Helvetica Neue', Helvetica, Arial-Unicode, Arial, Sans-serif">from the Noun Project</text></svg>