<svg xmlns="http://www.w3.org/2000/svg" xmlns:xlink="http://www.w3.org/1999/xlink" version="1.1" x="0px" y="0px" viewBox="0 0 520 650" style="enable-background:new 0 0 520 520;" xml:space="preserve"><g><g><path d="M427.727,395.631c7.968-6.207,13.106-15.882,13.106-26.74c0-18.686-15.202-33.889-33.889-33.889    c-18.686,0-33.89,15.202-33.89,33.889c0,10.858,5.14,20.533,13.106,26.74c-11.43,3.967-21.054,11.828-27.256,22.004    c-7.523-27.236-31.431-47.724-60.409-50.149c32.614-22.262,32.733-70.01,0.367-92.483h43.971    c16.358,0,29.666-13.309,29.666-29.668v-10.333h25.333c16.358,0,29.667-13.308,29.667-29.666V101.669    c0-16.358-13.309-29.667-29.667-29.667H367.5v-42c0-2.042-1.242-3.879-3.137-4.64c-1.895-0.759-4.063-0.293-5.475,1.182    l-43.523,45.458H156.166c-16.358,0-29.666,13.309-29.666,29.667v38.333h-25.333c-16.358,0-29.667,13.308-29.667,29.666v75.667    c0,16.359,13.309,29.668,29.667,29.668H127.5v35c0,3.911,4.312,6.323,7.65,4.24l62.784-39.24h37.093    c-32.434,22.52-32.176,70.272,0.368,92.483c-28.98,2.426-52.888,22.912-60.411,50.147c-6.202-10.174-15.826-18.035-27.256-22.002    c7.967-6.207,13.107-15.882,13.107-26.74c0-18.686-15.203-33.889-33.889-33.889c-18.686,0-33.889,15.202-33.889,33.889    c0,10.858,5.139,20.533,13.106,26.74c-20.216,7.016-34.773,26.242-34.773,48.815v25.556c0,2.761,2.239,5,5,5H172.5v15    c0,2.761,2.239,5,5,5h178.889c2.762,0,5-2.239,5-5v-15H457.5c2.762,0,5-2.239,5-5v-25.556    C462.5,421.873,447.942,402.647,427.727,395.631z M406.944,345.002c13.172,0,23.889,10.716,23.889,23.889    c0,13.16-10.696,23.867-23.851,23.889h-0.076c-13.155-0.021-23.852-10.728-23.852-23.889    C383.055,355.718,393.771,345.002,406.944,345.002z M136.5,101.669c0-10.844,8.822-19.667,19.666-19.667H317.5    c1.364,0,2.668-0.557,3.611-1.542L357.5,42.454v34.548c0,2.761,2.238,5,5,5h35.333c10.845,0,19.667,8.823,19.667,19.667v103.667    c0,10.844-8.822,19.666-19.667,19.666H372.5v-55.334c0-16.358-13.308-29.666-29.666-29.666H136.5V101.669z M196.5,265.002    c-0.937,0-1.855,0.263-2.65,0.76L137.5,300.98v-30.978c0-2.762-2.239-5-5-5h-31.333c-10.844,0-19.667-8.823-19.667-19.668v-75.667    c0-10.844,8.823-19.666,19.667-19.666h241.667c10.844,0,19.666,8.822,19.666,19.666v75.667c0,10.844-8.822,19.668-19.666,19.668    H196.5z M220.834,321.113c0-25.426,20.686-46.111,46.111-46.111c25.426,0,46.11,20.685,46.11,46.111    c0,25.425-20.685,46.11-46.11,46.11C241.52,367.224,220.834,346.538,220.834,321.113z M126.945,345.002    c13.172,0,23.889,10.716,23.889,23.889c0,13.16-10.696,23.867-23.851,23.889h-0.077c-13.154-0.021-23.85-10.728-23.85-23.889    C103.056,355.718,113.772,345.002,126.945,345.002z M153.611,465.002v-16.667c0-2.762-2.239-5-5-5c-2.761,0-5,2.238-5,5v16.667    h-33.333v-16.667c0-2.762-2.239-5-5-5c-2.761,0-5,2.238-5,5v16.667H81.389v-20.556c0-22.976,18.692-41.667,41.667-41.667    c0.109,0,8.225,0,7.778,0c22.962,0,41.645,18.671,41.666,41.629v20.594H153.611z M351.389,485.002h-41.111v-23.333    c0-2.762-2.238-5-5-5c-2.762,0-5,2.238-5,5v23.333h-66.666v-23.333c0-2.762-2.239-5-5-5c-2.761,0-5,2.238-5,5v23.333H182.5    c0-27.451,0-4.825,0-49.111c0-32.349,26.318-58.666,58.667-58.666h51.556c32.349,0,58.666,26.317,58.666,58.666    c0,10.178,0,23.766,0,34.111V485.002z M452.5,465.002h-18.889v-16.667c0-2.762-2.238-5-5-5c-2.762,0-5,2.238-5,5v16.667h-33.334    v-16.667c0-2.762-2.238-5-5-5c-2.762,0-5,2.238-5,5v16.667h-18.889v-20.556c0-22.976,18.691-41.667,41.667-41.667    c4.955,0.001,2.822,0.001,7.777,0c22.976,0,41.667,18.691,41.667,41.667V465.002z"/><path d="M327.5,175.001h-210c-2.761,0-5,2.239-5,5c0,2.761,2.239,5,5,5h210c2.762,0,5-2.239,5-5    C332.5,177.24,330.262,175.001,327.5,175.001z"/><path d="M327.5,200.001h-210c-2.761,0-5,2.239-5,5c0,2.761,2.239,5,5,5h210c2.762,0,5-2.239,5-5    C332.5,202.24,330.262,200.001,327.5,200.001z"/><path d="M327.5,225.001h-210c-2.761,0-5,2.239-5,5c0,2.761,2.239,5,5,5h210c2.762,0,5-2.239,5-5    C332.5,227.24,330.262,225.001,327.5,225.001z"/><path d="M82.5,75.002c0-13.785-11.215-25-25-25s-25,11.215-25,25c0,13.785,11.215,25,25,25S82.5,88.787,82.5,75.002z M42.5,75.002    c0-8.271,6.729-15,15-15s15,6.729,15,15s-6.729,15-15,15S42.5,83.272,42.5,75.002z"/><path d="M452.5,260.002c-19.299,0-35,15.701-35,35c0,19.299,15.701,35,35,35s35-15.701,35-35    C487.5,275.703,471.799,260.002,452.5,260.002z M452.5,320.002c-13.785,0-25-11.215-25-25c0-13.785,11.215-25,25-25    c13.785,0,25,11.215,25,25C477.5,308.787,466.285,320.002,452.5,320.002z"/><circle cx="180" cy="52.5" r="7.5"/><circle cx="60" cy="132.5" r="7.5"/><circle cx="60" cy="312.5" r="7.5"/><circle cx="450" cy="232.5" r="7.5"/><circle cx="365" cy="312.5" r="7.5"/><circle cx="435" cy="52.5" r="7.5"/></g></g><text x="0" y="535" fill="#000000" font-size="5px" font-weight="bold" font-family="'Helvetica Neue', Helvetica, Arial-Unicode, Arial, Sans-serif">Created by Flatart</text><text x="0" y="540" fill="#000000" font-size="5px" font-weight="bold" font-family="'Helvetica Neue', Helvetica, Arial-Unicode, Arial, Sans-serif">from the Noun Project</text></svg>